<svg width="78" height="78" viewBox="0 0 78 78" fill="none" xmlns="http://www.w3.org/2000/svg">
<rect x="6.41223" y="24.3975" width="1.875" height="33.93" fill="#162837"/>
<rect x="33.6974" y="24.4125" width="20.3625" height="1.875" fill="#162837"/>
<rect x="22.6057" y="34.71" width="20.0325" height="1.875" fill="#162837"/>
<rect x="22.6057" y="38.8125" width="20.0325" height="1.875" fill="#162837"/>
<rect x="22.6057" y="42.915" width="15.3825" height="1.875" fill="#162837"/>
<rect x="22.6057" y="38.7975" width="20.0325" height="1.875" fill="#162837"/>
<rect x="45.1128" y="34.71" width="20.0325" height="1.875" fill="#162837"/>
<rect x="45.1128" y="38.8125" width="20.0325" height="1.875" fill="#162837"/>
<rect x="45.1128" y="42.915" width="20.0325" height="1.875" fill="#162837"/>
<rect x="45.1128" y="47.055" width="20.0325" height="1.875" fill="#162837"/>
<rect x="45.1128" y="57.39" width="20.0325" height="1.875" fill="#162837"/>
<rect x="45.1128" y="51.1875" width="6.6375" height="1.875" fill="#162837"/>
<rect x="45.1128" y="38.7975" width="20.0325" height="1.875" fill="#162837"/>
<rect x="37.3346" y="20.31" width="13.0725" height="1.875" fill="#162837"/>
<path fill-rule="evenodd" clip-rule="evenodd" d="M10.4995 21.2025H12.3895L12.3745 19.3275H10.4995V21.2025ZM12.3891 25.3275H10.4991V23.4525H12.3741L12.3891 25.3275ZM10.4991 29.4525H12.3891L12.3741 27.5775H10.4991V29.4525ZM12.3891 33.5775H10.4991V31.7025H12.3741L12.3891 33.5775ZM10.4991 37.7025H12.3891L12.3741 35.8275H10.4991V37.7025ZM12.3891 41.8275H10.4991V39.9525H12.3741L12.3891 41.8275ZM10.4991 45.9525H12.3891L12.3741 44.0775H10.4991V45.9525ZM12.3891 50.0775H10.4991V48.2025H12.3741L12.3891 50.0775ZM10.4991 54.2025H12.3891L12.3741 52.3275H10.4991V54.2025ZM10.4991 58.3275H12.3891L12.3741 56.4525H10.4991V58.3275Z" fill="#162837"/>
<path fill-rule="evenodd" clip-rule="evenodd" d="M42.6155 47.055V58.305C42.6114 61.0868 40.3573 63.3409 37.5755 63.345H19.358V61.5C21.0984 61.4835 22.5006 60.068 22.5005 58.3275V47.0775L42.6155 47.055Z" fill="url(#paint0_linear)"/>
<path fill-rule="evenodd" clip-rule="evenodd" d="M11.4522 63.375H68.0922L68.9997 63.3675V63.285C71.3842 62.835 73.1125 60.7541 73.1172 58.3275V14.64H14.6172V58.335C14.6172 60.083 13.2002 61.5 11.4522 61.5C9.70425 61.5 8.28723 60.083 8.28723 58.335H6.41223C6.41223 61.1185 8.66872 63.375 11.4522 63.375ZM68.0928 61.5H15.3678C16.1007 60.6052 16.5009 59.4841 16.5003 58.3275V16.5H71.2503V58.3275C71.2523 59.1669 70.9207 59.9727 70.3286 60.5677C69.7365 61.1627 68.9322 61.498 68.0928 61.5Z" fill="#162837"/>
<defs>
<linearGradient id="paint0_linear" x1="35.2667" y1="72.0814" x2="46.9281" y2="48.3111" gradientUnits="userSpaceOnUse">
<stop stop-color="#F0B90B"/>
<stop offset="0.26" stop-color="#F1BD10"/>
<stop offset="0.59" stop-color="#F5C720"/>
<stop offset="0.96" stop-color="#FAD839"/>
<stop offset="0.99" stop-color="#FBDA3C"/>
</linearGradient>
</defs>
</svg>
