<svg width="78" height="78" viewBox="0 0 78 78" fill="none" xmlns="http://www.w3.org/2000/svg">
<path fill-rule="evenodd" clip-rule="evenodd" d="M48.7206 12V41.2575H24.3456L16.4706 49.1325L14.6031 49.125V41.25H9.72058V12H48.7206V12Z" fill="url(#paint0_linear)"/>
<path fill-rule="evenodd" clip-rule="evenodd" d="M61.4475 65.6475L53.5725 57.7725H34.08V41.2725H35.955V55.8975H54.345L61.5225 63.075V55.89H66.405V28.4925H48.72V26.6175H68.28V57.765H63.3975V65.64L61.4475 65.6475V65.6475Z" fill="#102838"/>
<rect x="34.08" y="40.335" width="1.875" height="0.9375" fill="#102838"/>
<path fill-rule="evenodd" clip-rule="evenodd" d="M34.0805 33.1425H35.9555V31.0275H34.0805V33.1425ZM34.08 37.7925H35.955V35.6775H34.08V37.7925Z" fill="#102838"/>
<rect x="34.08" y="26.6175" width="1.875" height="1.875" fill="#102838"/>
<path fill-rule="evenodd" clip-rule="evenodd" d="M38.4911 28.5H40.6061V26.625H38.4911V28.5ZM43.1401 28.5H45.2476V26.625H43.1401V28.5Z" fill="#102838"/>
<rect x="47.7841" y="26.6175" width="0.9375" height="1.875" fill="#102838"/>
<defs>
<linearGradient id="paint0_linear" x1="29.3739" y1="62.1435" x2="63.1635" y2="24.8618" gradientUnits="userSpaceOnUse">
<stop stop-color="#F0B90B"/>
<stop offset="0.28" stop-color="#F1BC0F"/>
<stop offset="0.57" stop-color="#F4C41C"/>
<stop offset="0.86" stop-color="#F8D230"/>
<stop offset="0.99" stop-color="#FBDA3C"/>
</linearGradient>
</defs>
</svg>
