<svg width="78" height="78" viewBox="0 0 78 78" fill="none" xmlns="http://www.w3.org/2000/svg">
<path fill-rule="evenodd" clip-rule="evenodd" d="M10.072 34.1275C10.0706 29.8216 13.5587 26.3292 17.8645 26.325C22.1765 26.325 25.672 29.8205 25.672 34.1325C25.6679 38.4384 22.1754 41.9264 17.8695 41.925C13.5637 41.9236 10.0734 38.4334 10.072 34.1275ZM23.6178 34.1225C23.6164 30.9465 21.0414 28.3725 17.8653 28.3725C14.6888 28.3808 12.1169 30.956 12.1128 34.1325C12.117 37.3085 14.6943 39.8803 17.8703 39.8775C21.0463 39.8747 23.6192 37.2986 23.6178 34.1225Z" fill="#212833"/>
<path fill-rule="evenodd" clip-rule="evenodd" d="M52.3508 34.1275C52.3495 29.8216 55.8375 26.3292 60.1433 26.325C64.4553 26.325 67.9508 29.8205 67.9508 34.1325C67.9467 38.4384 64.4542 41.9264 60.1483 41.925C55.8425 41.9236 52.3522 38.4334 52.3508 34.1275ZM65.8962 34.1225C65.8948 30.9465 63.3197 28.3725 60.1437 28.3725C56.9672 28.3808 54.3953 30.956 54.3912 34.1325C54.3953 37.3085 56.9726 39.8803 60.1487 39.8775C63.3247 39.8747 65.8976 37.2986 65.8962 34.1225Z" fill="#212833"/>
<path fill-rule="evenodd" clip-rule="evenodd" d="M67.0646 44.6175H59.1146C59.6192 45.2486 60.0495 45.9356 60.3971 46.665H67.0646C69.2765 46.665 71.0696 48.4581 71.0696 50.67V52.2375H61.4096V54.2775H73.1171V50.67C73.113 47.329 70.4056 44.6216 67.0646 44.6175Z" fill="#212833"/>
<path fill-rule="evenodd" clip-rule="evenodd" d="M4.88196 50.67V54.2775H16.5895V52.2375H6.92946V50.67C6.92946 48.4581 8.72256 46.665 10.9345 46.665H17.602C17.9469 45.9358 18.3747 45.2487 18.877 44.6175H10.9345C7.59518 44.6257 4.8902 47.3307 4.88196 50.67Z" fill="#212833"/>
<path fill-rule="evenodd" clip-rule="evenodd" d="M28.4467 29.505C28.4467 23.677 33.1712 18.9525 38.9992 18.9525C44.8272 18.9525 49.5517 23.677 49.5517 29.505C49.5517 35.333 44.8272 40.0575 38.9992 40.0575C33.1712 40.0575 28.4467 35.333 28.4467 29.505ZM58.958 57.555V51.2025V51.195C58.9538 46.6818 55.2962 43.0241 50.783 43.02H44.663L39.0005 48.69L33.338 43.02H27.218C22.7048 43.0241 19.0471 46.6818 19.043 51.195V57.555H58.958Z" fill="url(#paint0_linear)"/>
<defs>
<linearGradient id="paint0_linear" x1="39.5391" y1="76.984" x2="69.9161" y2="44.5062" gradientUnits="userSpaceOnUse">
<stop stop-color="#F0B90B"/>
<stop offset="0.26" stop-color="#F1BD10"/>
<stop offset="0.59" stop-color="#F5C720"/>
<stop offset="0.96" stop-color="#FAD839"/>
<stop offset="0.99" stop-color="#FBDA3C"/>
</linearGradient>
</defs>
</svg>
