<svg width="78" height="78" viewBox="0 0 78 78" fill="none" xmlns="http://www.w3.org/2000/svg">
<path fill-rule="evenodd" clip-rule="evenodd" d="M16.165 34C12.7541 34.0206 9.99994 36.7915 10 40.2025V45.73C10 49.1555 12.777 51.9325 16.2025 51.9325H20.125V34H16.165ZM55.3753 51.9325V34H59.3203C62.737 34.0124 65.5003 36.7857 65.5003 40.2025V45.73C65.5003 49.1555 62.7233 51.9325 59.2978 51.9325H55.3753ZM35.9598 72.0428C34.2017 71.3153 33.0552 69.6002 33.0552 67.6975C33.0532 66.451 33.547 65.2549 34.4277 64.3728C35.3084 63.4907 36.5037 62.995 37.7502 62.995C39.6528 62.992 41.3698 64.1358 42.1001 65.8927C42.8303 67.6497 42.4298 69.6736 41.0855 71.02C39.7412 72.3665 37.718 72.7702 35.9598 72.0428Z" fill="url(#paint0_linear)"/>
<path fill-rule="evenodd" clip-rule="evenodd" d="M38 6.70499C25.0705 6.70497 14.5832 17.1755 14.5625 30.105V30.855H20.375V30.1425C20.375 20.4085 28.266 12.5175 38 12.5175C47.734 12.5175 55.625 20.4085 55.625 30.1425V30.855H61.4375V30.105C61.4168 17.1755 50.9295 6.70497 38 6.70499ZM18.5341 28.98H16.4663C16.7261 23.9268 18.7254 19.3334 21.8772 15.787L23.3559 17.2657C20.5723 20.4289 18.7974 24.5013 18.5341 28.98ZM25.1237 15.498C28.5585 12.4756 33.0652 10.6425 38 10.6425C42.925 10.6425 47.4236 12.4683 50.8558 15.4801L52.3349 13.9971C48.5249 10.6041 43.5032 8.54249 38 8.54249C32.486 8.54249 27.4555 10.6122 23.6428 14.0171L25.1237 15.498ZM57.4659 28.98C57.202 24.4917 55.42 20.4114 52.6261 17.2453L54.1029 15.7646C57.2662 19.3141 59.2734 23.9162 59.5337 28.98H57.4659ZM31.3167 54.285C33.1708 56.1116 35.5837 57.0291 37.9993 57.0375C40.4148 57.0291 42.8277 56.1116 44.6818 54.285L44.7157 54.3178L44.7492 54.285L46.0917 55.59C44.7979 56.8754 43.2728 57.787 41.6511 58.3248C37.6859 59.658 33.1337 58.7514 29.9668 55.605L31.2493 54.285L31.2833 54.3184L31.3167 54.285ZM28.7676 66.585C29.3646 66.8655 29.9754 67.1159 30.5976 67.335L31.2351 65.595C30.6726 65.3925 30.1176 65.1525 29.5776 64.8975L28.7676 66.585ZM26.6887 65.4C26.1337 65.04 25.5937 64.65 25.0762 64.2375L26.2462 62.7375C26.7128 63.1099 27.1985 63.4579 27.7012 63.78L26.6887 65.4ZM22.0625 61.23C22.475 61.7625 22.9175 62.2575 23.375 62.73L24.755 61.4025C24.3125 60.975 23.9375 60.525 23.5625 60.06L22.0625 61.23ZM20.7513 59.3775C20.4046 58.814 20.0867 58.2332 19.7988 57.6375L21.5013 56.82C21.7592 57.3607 22.0472 57.8865 22.3638 58.395L20.7513 59.3775ZM18.4336 53.7075C18.5836 54.3525 18.7636 54.9975 18.9736 55.62L20.7511 55.02C20.559 54.4538 20.3962 53.878 20.2636 53.295L18.4336 53.7075Z" fill="#162837"/>
<defs>
<linearGradient id="paint0_linear" x1="-2.73893" y1="37.8652" x2="16.3307" y2="77.7003" gradientUnits="userSpaceOnUse">
<stop stop-color="#F0B90B"/>
<stop offset="0.28" stop-color="#F1BC0F"/>
<stop offset="0.57" stop-color="#F4C41C"/>
<stop offset="0.86" stop-color="#F8D230"/>
<stop offset="0.99" stop-color="#FBDA3C"/>
</linearGradient>
</defs>
</svg>
